<svg id="Layer_1" data-name="Layer 1" xmlns="http://www.w3.org/2000/svg" viewBox="0 0 170.8665 34.5"><title>rehab-site_logo</title><path d="M5.6994,8.1316H6.8283c1.9509,0,2.9264,1.1327,2.9264,3.3862q0,4.1235-2.9922,4.1176H5.6994Zm1.4467,14.17L11.6179,34.265h6.4776L11.9467,19.9536q3.5841-3.1148,3.5841-8.837c0-6.4773-2.8826-9.71-8.6148-9.71H0V34.265H5.6994V22.3015Z" fill="#192858" fill-rule="evenodd"/><polygon points="32.563 27.033 25.724 27.033 25.724 20.827 32.059 20.827 32.059 13.7 25.724 13.7 25.724 8.533 32.563 8.533 32.563 1.407 20.025 1.407 20.025 34.265 32.563 34.265 32.563 27.033" fill="#192858" fill-rule="evenodd"/><polygon points="54.045 1.407 48.313 1.407 48.313 13.594 41.671 13.594 41.671 1.407 35.939 1.407 35.939 34.265 41.671 34.265 41.671 20.862 48.313 20.862 48.313 34.265 54.045 34.265 54.045 1.407" fill="#192858" fill-rule="evenodd"/><path d="M64.6768,20.8267q1.3154-7.7161,1.6989-10.359c.263-1.7461.4274-2.9968.5151-3.7755.0877.8259.285,2.1827.5919,4.0941s.559,3.4569.7782,4.6485l.9206,5.3919ZM77.6429,34.265l-6.9708-33H63.0547l-6.905,33H62.419l1.0851-6.1587h6.85l1.0412,6.1587Z" fill="#192858" fill-rule="evenodd"/><path d="M86.8934,20.5081a2.5722,2.5722,0,0,1,2.0715.8849,3.8929,3.8929,0,0,1,.7124,2.513c0,2.3361-.8987,3.5042-2.6633,3.5042H84.9973V20.5081ZM84.9973,8.1316h1.6c1.7865,0,2.6853.92,2.6853,2.7609a3.5484,3.5484,0,0,1-.6686,2.336,2.3342,2.3342,0,0,1-1.8962.79H84.9973Zm-5.71,26.1334h8.22a7.2808,7.2808,0,0,0,5.8857-2.572,10.6608,10.6608,0,0,0,2.17-7.0555,11.5566,11.5566,0,0,0-.8878-4.8845,5.3129,5.3129,0,0,0-2.85-2.7018V16.827a4.5854,4.5854,0,0,0,2.4-2.513,11.1264,11.1264,0,0,0,.9206-4.7194c0-2.7962-.7124-4.8727-2.1044-6.1941-1.381-1.3332-3.5182-1.9939-6.3789-1.9939H79.2869Z" fill="#192858" fill-rule="evenodd"/><rect x="98.1065" width="72.76" height="34.5" fill="#192858"/><path d="M118.2365,17.88a10.2378,10.2378,0,0,0-3.94-3.21,24.097,24.097,0,0,1-3.63-2.18,1.76,1.76,0,0,1-.67-1.36,1.4921,1.4921,0,0,1,.52-1.17,2.49,2.49,0,0,1,1.69-.48,11.6679,11.6679,0,0,1,5.31,1.65l1.82-5.36a15.0179,15.0179,0,0,0-6.95-1.85,8.7553,8.7553,0,0,0-6.07,1.99,7.051,7.051,0,0,0-2.21,5.54,9.35,9.35,0,0,0,.52,3.29,6.86,6.86,0,0,0,1.59,2.46,14.06,14.06,0,0,0,3.23,2.22,32.5159,32.5159,0,0,1,2.91,1.65,3.012,3.012,0,0,1,.8.8,1.648,1.648,0,0,1,.25.92,1.7444,1.7444,0,0,1-.62,1.38,2.9018,2.9018,0,0,1-1.94.53,11.6718,11.6718,0,0,1-3.36-.56,16.634,16.634,0,0,1-3.53-1.59v6.18a12.1856,12.1856,0,0,0,3.1,1.26,16.3815,16.3815,0,0,0,3.68.36,9.8184,9.8184,0,0,0,4.58-1.03,7.1051,7.1051,0,0,0,2.99-2.88,8.6524,8.6524,0,0,0,1.03-4.25A7.9678,7.9678,0,0,0,118.2365,17.88Z" fill="#fff" fill-rule="evenodd"/><rect x="122.6565" y="4.3" width="5.97" height="25.7" fill="#fff"/><polygon points="142.537 9.97 147.877 9.97 147.877 4.3 131.237 4.3 131.237 9.97 136.607 9.97 136.607 30 142.537 30 142.537 9.97" fill="#fff" fill-rule="evenodd"/><polygon points="163.567 24.34 156.467 24.34 156.467 19.49 163.037 19.49 163.037 13.91 156.467 13.91 156.467 9.86 163.567 9.86 163.567 4.3 150.517 4.3 150.517 30 163.567 30 163.567 24.34" fill="#fff" fill-rule="evenodd"/></svg>