<?xml version="1.0" encoding="utf-8"?>
<!-- Generator: Adobe Illustrator 23.0.1, SVG Export Plug-In . SVG Version: 6.00 Build 0)  -->
<svg version="1.1" id="Layer_1" xmlns="http://www.w3.org/2000/svg" xmlns:xlink="http://www.w3.org/1999/xlink" x="0px" y="0px"
	 viewBox="0 0 99.22 150" style="enable-background:new 0 0 99.22 150;" xml:space="preserve">
<style type="text/css">
	.st0{fill-rule:evenodd;clip-rule:evenodd;fill:#CDCDCD;}
</style>
<path class="st0" d="M69.88,114.36v32.14h-18.4v-32.14H69.88z M48.91,114.36v32.14h-19.8v-32.14H48.91z M80.82,79.89v17.24h-17
	V79.89H80.82z M57.53,79.89v17.24H40.3V79.89H57.53z M34.01,79.89v17.24H16.77V79.89H34.01z M80.82,58.93v17.24h-17V58.93H80.82z
	 M57.53,58.93v17.24H40.3V58.93H57.53z M34.01,58.93v17.24H16.77V58.93H34.01z M80.82,36.8v17h-17v-17H80.82z M57.53,36.8v17H40.3
	v-17H57.53z M34.01,36.8v17H16.77v-17H34.01z M52.41,5.82v6.29h6.29v7.22h-6.06v6.06h-7.69v-6.06h-5.82v-7.22h6.06V5.82H52.41z
	 M83.39,0v18.4h15.84V150H0V18.4h15.37V0H83.39z"/>
</svg>
