<svg class="USNODRUGS_logo" data-name="USNODRUGS_logo" xmlns="http://www.w3.org/2000/svg" viewBox="0 0 620.23 128.84"><title>usnodrugs_logo</title><rect class="Box" x="143.82" width="476.41" height="128.84" fill="#192858"/><g class="DRUGS"><path class="S" d="M605.24,37.54c0-8.81-.74-15.07-2.18-18.75s-4.41-6.72-8.9-9.14A33.68,33.68,0,0,0,577.92,6,30.93,30.93,0,0,0,563,9.32a19.71,19.71,0,0,0-9,9.14c-1.86,3.86-2.76,10-2.76,18.39a44.2,44.2,0,0,0,2,14.42,24.29,24.29,0,0,0,4.94,8.81c2,2.15,6.21,5.36,12.56,9.76s10.16,7.55,11.5,9.62,2,6.44,2,13.18a16.3,16.3,0,0,1-1.17,6.93,3.79,3.79,0,0,1-3.56,2.3,3.42,3.42,0,0,1-3.33-1.82c-.66-1.23-.93-3.93-.93-8.24V77.9h-24v7.25c0,8.3.69,14.72,2.19,19.21s4.64,8.24,9.44,11.15a33.18,33.18,0,0,0,17.32,4.34,33.83,33.83,0,0,0,16.15-3.74c4.61-2.52,7.76-5.64,9.4-9.32s2.43-9.47,2.43-17.32q0-16.14-4.22-23.4T583.37,47.52q-5.75-4-6.86-6.74c-.84-1.83-1.23-4.59-1.23-8.3a18.34,18.34,0,0,1,.81-6.41c.54-1.41,1.35-2.1,2.43-2.1a2.19,2.19,0,0,1,2.1,1.68c.42,1.14.65,3.65.65,7.67V42h24Z" fill="#f8f8f8" fill-rule="evenodd"/><path class="G" d="M545.32,43.27c0-8.81-.75-15.55-2.16-20.2s-4.52-8.66-9.26-12S523.24,6,516.05,6s-13.28,2-17.86,5.91-7.4,8.26-8.36,13-1.44,12.31-1.44,22.71V80.09a153.41,153.41,0,0,0,.69,16.9,29.72,29.72,0,0,0,3.63,10.79,23.5,23.5,0,0,0,8.41,8.59,22.12,22.12,0,0,0,11.93,3.48,15.72,15.72,0,0,0,9.29-2.85,22,22,0,0,0,6.5-7.79l2.1,7.64h14.38V56.93h-27v15h3V87c0,5.87-.36,9.86-1,11.87s-1.92,3.05-3.74,3.05a3.26,3.26,0,0,1-3.39-2.33c-.57-1.59-.84-4.89-.84-9.83V36.55c0-5.6.27-9.1.93-10.51A3.51,3.51,0,0,1,516.8,24c2,0,3.2.81,3.74,2.4s.81,5.45.81,11.68v9.89h24Z" fill="#f8f8f8" fill-rule="evenodd"/><path class="U" d="M452.44,9V89.32c0,5.42-.18,8.9-.57,10.37a2.49,2.49,0,0,1-2.58,2.18,2.27,2.27,0,0,1-2.28-2c-.39-1.29-.57-4.35-.57-9.11V9h-24V73.23q0,18.38.57,24.15a25.2,25.2,0,0,0,3.66,10.84,22.32,22.32,0,0,0,9.26,8.39,30.61,30.61,0,0,0,14.38,3.24A28,28,0,0,0,463,117.12a21.27,21.27,0,0,0,8.72-7.94,26.74,26.74,0,0,0,4-10.24,149.67,149.67,0,0,0,.69-17.38V9Z" fill="#f8f8f8" fill-rule="evenodd"/><path class="R" d="M387.6,28.55c1.25,1.08,1.91,3.33,1.91,6.75v5.9c0,4.76-.69,7.64-2,8.48s-3.66,1.26-7,1.26V27C383.94,27,386.28,27.54,387.6,28.55Zm-31,88.3h24V68.91q6.11,0,7.55,2.07c.92,1.35,1.43,4.86,1.43,10.52v35.35h21V88.48c0-8.66-.24-14-.66-15.88a17.84,17.84,0,0,0-3.18-6.35c-1.74-2.31-5.09-4.14-10.06-5.52,5.51-.57,9.22-2.3,11.08-5.21s2.82-8.57,2.82-17c0-9.23-1.32-15.91-3.84-20.13s-5.84-6.83-9.88-7.85S385,9,373.63,9H356.56Z" fill="#f8f8f8" fill-rule="evenodd"/><path class="D" d="M321,28A4.55,4.55,0,0,1,323.12,31a58.13,58.13,0,0,1,.48,9.5V83c0,7.31-.51,11.8-1.44,13.45s-3.48,2.43-7.55,2.43V27C317.69,27,319.85,27.3,321,28Zm-30.35,88.89h31c5.9,0,10.31-.33,13.21-1.07a16,16,0,0,0,7.34-3.9,14.67,14.67,0,0,0,4.17-7.61c.81-3.3,1.23-9.74,1.23-19.48V47c0-10.19-.27-17.08-.84-20.55a21.31,21.31,0,0,0-4.08-9.5,18.54,18.54,0,0,0-9.56-6.14C328.9,9.65,320.87,9,309,9H290.64Z" fill="#f8f8f8" fill-rule="evenodd"/></g><g class="NO"><path class="O" d="M254.68,86.89c0,6.56-.18,10.67-.57,12.41s-1.17,2.57-2.48,2.57-2.1-.75-2.43-2.24-.51-5.43-.51-11.9V36c0-5.7.24-9.11.81-10.28A2.46,2.46,0,0,1,251.78,24c1.16,0,2,.75,2.33,2.16s.57,4.73.57,9.89Zm24-33.35c0-11.23-.24-19.08-.66-23.58a29.11,29.11,0,0,0-4.16-12.46,22.31,22.31,0,0,0-9.23-8.6A28.5,28.5,0,0,0,251.69,6a27.76,27.76,0,0,0-13.31,3.06,23.06,23.06,0,0,0-9.08,8.69,29.69,29.69,0,0,0-4,12.55c-.42,4.59-.6,12.32-.6,23.25V72.27c0,11.24.18,19.12.66,23.61a28.89,28.89,0,0,0,4.1,12.49,22.56,22.56,0,0,0,9.23,8.63,29.36,29.36,0,0,0,13,2.85,27.83,27.83,0,0,0,13.3-3.06,22.86,22.86,0,0,0,9-8.68,29.07,29.07,0,0,0,4-12.5c.42-4.61.66-12.37.66-23.34Z" fill="#eb1a2c" fill-rule="evenodd"/><polygon class="N" points="191.76 8.99 191.76 57.53 176.78 8.99 158.8 8.99 158.8 116.85 179.78 116.85 179.78 67.83 191.76 116.85 212.74 116.85 212.74 8.99 191.76 8.99" fill="#eb1a2c" fill-rule="evenodd"/></g><g class="US"><path class="S-2" data-name="S" d="M134.83,35c0-9.8-.9-16.69-2.57-20.8S127.1,6.71,121.86,4,110.35,0,103,0C96.12,0,90.31,1.26,85.54,3.69A23,23,0,0,0,75.15,13.9C73,18.25,71.91,25.17,71.91,34.55c0,6.59.75,12,2.31,16.15a27.11,27.11,0,0,0,5.84,9.88c2.34,2.4,7.07,6.33,14.17,11.9s11.63,9.35,13.7,11.51,2.93,6.74,2.93,13.75c0,3.2-.51,5.6-1.56,7.22a5.1,5.1,0,0,1-4.7,2.4c-2.16,0-3.66-.6-4.49-1.86s-1.23-4-1.23-8.45V82.82h-27v8c0,9.11.84,16.09,2.58,21s5.33,9.05,10.84,12.23,12.2,4.79,20,4.79a40.38,40.38,0,0,0,18.79-4.23c5.33-2.78,9-6.26,10.84-10.45s2.82-10.58,2.82-19.36c0-12.07-1.68-20.79-5-26.22s-11.08-12.85-23.19-22.29c-4.19-3.23-7.07-5.84-8.45-7.76-1.55-1.86-2.3-4.7-2.3-8.42a22.2,22.2,0,0,1,.66-6.47c.48-1.44,1.85-2.16,4.22-2.16.45,0,1.26.57,2.37,1.71s1.74,3.75,1.74,7.88v8.81h27Z" fill="#192858" fill-rule="evenodd"/><path class="U-2" data-name="U" d="M36,2.06V93.33c0,6.09-.27,10-.84,11.6a3.66,3.66,0,0,1-3.84,2.43,3.3,3.3,0,0,1-3.47-2.19c-.57-1.5-.84-4.89-.84-10.28V2.06H0V76c0,13.87.18,23,.66,27.35a29,29,0,0,0,4.22,12.38,25.29,25.29,0,0,0,10.85,9.46,37.12,37.12,0,0,0,16.75,3.66,34.31,34.31,0,0,0,14.86-3.06A25,25,0,0,0,57.5,116.7a28.46,28.46,0,0,0,4.61-11.62q.81-5.62.81-19.66V2.06Z" fill="#192858" fill-rule="evenodd"/></g></svg>